<mxfile host="app.diagrams.net" modified="2023-10-06T18:10:25.640Z" agent="Mozilla/5.0 (X11; Ubuntu; Linux x86_64; rv:109.0) Gecko/20100101 Firefox/116.0" etag="f0ao3Vz_n8y8BRTSmXMO" version="22.0.3" type="device">
  <diagram name="PÃ¡gina-1" id="9w_YTEWKcRuqe-osN219">
    <mxGraphModel dx="1318" dy="871" grid="1" gridSize="10" guides="1" tooltips="1" connect="1" arrows="1" fold="1" page="1" pageScale="1" pageWidth="827" pageHeight="1169" math="0" shadow="0">
      <root>
        <mxCell id="0" />
        <mxCell id="1" parent="0" />
        <mxCell id="SkEyFe7wz7d3hwRlkdky-17" style="edgeStyle=orthogonalEdgeStyle;rounded=0;orthogonalLoop=1;jettySize=auto;html=1;exitX=0;exitY=0.5;exitDx=0;exitDy=0;entryX=0.5;entryY=0;entryDx=0;entryDy=0;" edge="1" parent="1" source="SkEyFe7wz7d3hwRlkdky-1" target="SkEyFe7wz7d3hwRlkdky-2">
          <mxGeometry relative="1" as="geometry" />
        </mxCell>
        <mxCell id="SkEyFe7wz7d3hwRlkdky-18" style="edgeStyle=orthogonalEdgeStyle;rounded=0;orthogonalLoop=1;jettySize=auto;html=1;exitX=1;exitY=0.5;exitDx=0;exitDy=0;entryX=0.5;entryY=0;entryDx=0;entryDy=0;" edge="1" parent="1" source="SkEyFe7wz7d3hwRlkdky-1" target="SkEyFe7wz7d3hwRlkdky-3">
          <mxGeometry relative="1" as="geometry" />
        </mxCell>
        <mxCell id="SkEyFe7wz7d3hwRlkdky-1" value="inventario" style="rounded=0;whiteSpace=wrap;html=1;fillColor=#dae8fc;strokeColor=#6c8ebf;" vertex="1" parent="1">
          <mxGeometry x="354" y="40" width="120" height="60" as="geometry" />
        </mxCell>
        <mxCell id="SkEyFe7wz7d3hwRlkdky-39" style="edgeStyle=orthogonalEdgeStyle;rounded=0;orthogonalLoop=1;jettySize=auto;html=1;exitX=0;exitY=0.5;exitDx=0;exitDy=0;entryX=0.5;entryY=0;entryDx=0;entryDy=0;" edge="1" parent="1" source="SkEyFe7wz7d3hwRlkdky-2" target="SkEyFe7wz7d3hwRlkdky-12">
          <mxGeometry relative="1" as="geometry" />
        </mxCell>
        <mxCell id="SkEyFe7wz7d3hwRlkdky-41" style="edgeStyle=orthogonalEdgeStyle;rounded=0;orthogonalLoop=1;jettySize=auto;html=1;exitX=1;exitY=0.5;exitDx=0;exitDy=0;entryX=0.5;entryY=0;entryDx=0;entryDy=0;" edge="1" parent="1" source="SkEyFe7wz7d3hwRlkdky-2" target="SkEyFe7wz7d3hwRlkdky-14">
          <mxGeometry relative="1" as="geometry" />
        </mxCell>
        <mxCell id="SkEyFe7wz7d3hwRlkdky-47" style="edgeStyle=orthogonalEdgeStyle;rounded=0;orthogonalLoop=1;jettySize=auto;html=1;exitX=0.5;exitY=1;exitDx=0;exitDy=0;entryX=0.5;entryY=0;entryDx=0;entryDy=0;" edge="1" parent="1" source="SkEyFe7wz7d3hwRlkdky-2" target="SkEyFe7wz7d3hwRlkdky-13">
          <mxGeometry relative="1" as="geometry">
            <Array as="points">
              <mxPoint x="234" y="290" />
            </Array>
          </mxGeometry>
        </mxCell>
        <mxCell id="SkEyFe7wz7d3hwRlkdky-2" value="programas" style="rounded=0;whiteSpace=wrap;html=1;fillColor=#dae8fc;strokeColor=#6c8ebf;" vertex="1" parent="1">
          <mxGeometry x="174" y="140" width="120" height="60" as="geometry" />
        </mxCell>
        <mxCell id="SkEyFe7wz7d3hwRlkdky-32" style="edgeStyle=orthogonalEdgeStyle;rounded=0;orthogonalLoop=1;jettySize=auto;html=1;exitX=0;exitY=0.5;exitDx=0;exitDy=0;entryX=0.25;entryY=0;entryDx=0;entryDy=0;" edge="1" parent="1" source="SkEyFe7wz7d3hwRlkdky-3" target="SkEyFe7wz7d3hwRlkdky-19">
          <mxGeometry relative="1" as="geometry" />
        </mxCell>
        <mxCell id="SkEyFe7wz7d3hwRlkdky-34" style="edgeStyle=orthogonalEdgeStyle;rounded=0;orthogonalLoop=1;jettySize=auto;html=1;exitX=0.75;exitY=1;exitDx=0;exitDy=0;entryX=0.25;entryY=0;entryDx=0;entryDy=0;" edge="1" parent="1" source="SkEyFe7wz7d3hwRlkdky-3" target="SkEyFe7wz7d3hwRlkdky-21">
          <mxGeometry relative="1" as="geometry">
            <Array as="points">
              <mxPoint x="648" y="200" />
            </Array>
          </mxGeometry>
        </mxCell>
        <mxCell id="SkEyFe7wz7d3hwRlkdky-35" style="edgeStyle=orthogonalEdgeStyle;rounded=0;orthogonalLoop=1;jettySize=auto;html=1;exitX=1;exitY=0.5;exitDx=0;exitDy=0;entryX=0.5;entryY=0;entryDx=0;entryDy=0;" edge="1" parent="1" source="SkEyFe7wz7d3hwRlkdky-3" target="SkEyFe7wz7d3hwRlkdky-22">
          <mxGeometry relative="1" as="geometry" />
        </mxCell>
        <mxCell id="SkEyFe7wz7d3hwRlkdky-36" style="edgeStyle=orthogonalEdgeStyle;rounded=0;orthogonalLoop=1;jettySize=auto;html=1;exitX=0;exitY=1;exitDx=0;exitDy=0;entryX=0.5;entryY=0;entryDx=0;entryDy=0;" edge="1" parent="1" source="SkEyFe7wz7d3hwRlkdky-3" target="SkEyFe7wz7d3hwRlkdky-20">
          <mxGeometry relative="1" as="geometry">
            <Array as="points">
              <mxPoint x="580" y="290" />
            </Array>
          </mxGeometry>
        </mxCell>
        <mxCell id="SkEyFe7wz7d3hwRlkdky-3" value="hardware" style="rounded=0;whiteSpace=wrap;html=1;fillColor=#dae8fc;strokeColor=#6c8ebf;" vertex="1" parent="1">
          <mxGeometry x="580" y="140" width="120" height="60" as="geometry" />
        </mxCell>
        <mxCell id="SkEyFe7wz7d3hwRlkdky-4" value="Contaplus" style="rounded=0;whiteSpace=wrap;html=1;fillColor=#fff2cc;strokeColor=#d6b656;" vertex="1" parent="1">
          <mxGeometry x="19" y="470" width="120" height="60" as="geometry" />
        </mxCell>
        <mxCell id="SkEyFe7wz7d3hwRlkdky-5" value="Microsoft Office&lt;span style=&quot;white-space: pre;&quot;&gt;&#x9;&lt;/span&gt;" style="rounded=0;whiteSpace=wrap;html=1;fillColor=#fff2cc;strokeColor=#d6b656;" vertex="1" parent="1">
          <mxGeometry x="169" y="470" width="120" height="60" as="geometry" />
        </mxCell>
        <mxCell id="SkEyFe7wz7d3hwRlkdky-6" value="Visual Studio" style="rounded=0;whiteSpace=wrap;html=1;fillColor=#fff2cc;strokeColor=#d6b656;" vertex="1" parent="1">
          <mxGeometry x="303" y="470" width="120" height="60" as="geometry" />
        </mxCell>
        <mxCell id="SkEyFe7wz7d3hwRlkdky-45" style="edgeStyle=orthogonalEdgeStyle;rounded=0;orthogonalLoop=1;jettySize=auto;html=1;" edge="1" parent="1" source="SkEyFe7wz7d3hwRlkdky-12" target="SkEyFe7wz7d3hwRlkdky-4">
          <mxGeometry relative="1" as="geometry" />
        </mxCell>
        <mxCell id="SkEyFe7wz7d3hwRlkdky-12" value="programa&lt;span style=&quot;white-space: pre;&quot;&gt;&#x9;&lt;/span&gt;" style="rounded=0;whiteSpace=wrap;html=1;fillColor=#dae8fc;strokeColor=#6c8ebf;" vertex="1" parent="1">
          <mxGeometry x="20" y="290" width="120" height="60" as="geometry" />
        </mxCell>
        <mxCell id="SkEyFe7wz7d3hwRlkdky-43" style="edgeStyle=orthogonalEdgeStyle;rounded=0;orthogonalLoop=1;jettySize=auto;html=1;exitX=0.5;exitY=1;exitDx=0;exitDy=0;entryX=0.5;entryY=0;entryDx=0;entryDy=0;" edge="1" parent="1" source="SkEyFe7wz7d3hwRlkdky-13" target="SkEyFe7wz7d3hwRlkdky-5">
          <mxGeometry relative="1" as="geometry">
            <Array as="points">
              <mxPoint x="240" y="470" />
            </Array>
          </mxGeometry>
        </mxCell>
        <mxCell id="SkEyFe7wz7d3hwRlkdky-13" value="programa" style="rounded=0;whiteSpace=wrap;html=1;fillColor=#dae8fc;strokeColor=#6c8ebf;" vertex="1" parent="1">
          <mxGeometry x="180" y="290" width="120" height="60" as="geometry" />
        </mxCell>
        <mxCell id="SkEyFe7wz7d3hwRlkdky-42" style="edgeStyle=orthogonalEdgeStyle;rounded=0;orthogonalLoop=1;jettySize=auto;html=1;exitX=0.5;exitY=1;exitDx=0;exitDy=0;entryX=0.5;entryY=0;entryDx=0;entryDy=0;" edge="1" parent="1" source="SkEyFe7wz7d3hwRlkdky-14" target="SkEyFe7wz7d3hwRlkdky-6">
          <mxGeometry relative="1" as="geometry">
            <Array as="points">
              <mxPoint x="370" y="470" />
            </Array>
          </mxGeometry>
        </mxCell>
        <mxCell id="SkEyFe7wz7d3hwRlkdky-14" value="programa" style="rounded=0;whiteSpace=wrap;html=1;fillColor=#dae8fc;strokeColor=#6c8ebf;" vertex="1" parent="1">
          <mxGeometry x="310" y="290" width="120" height="60" as="geometry" />
        </mxCell>
        <mxCell id="SkEyFe7wz7d3hwRlkdky-28" style="edgeStyle=orthogonalEdgeStyle;rounded=0;orthogonalLoop=1;jettySize=auto;html=1;exitX=0.5;exitY=1;exitDx=0;exitDy=0;entryX=0.5;entryY=0;entryDx=0;entryDy=0;" edge="1" parent="1" source="SkEyFe7wz7d3hwRlkdky-19" target="SkEyFe7wz7d3hwRlkdky-23">
          <mxGeometry relative="1" as="geometry">
            <Array as="points">
              <mxPoint x="495" y="470" />
            </Array>
          </mxGeometry>
        </mxCell>
        <mxCell id="SkEyFe7wz7d3hwRlkdky-19" value="ordenador" style="rounded=0;whiteSpace=wrap;html=1;fillColor=#dae8fc;strokeColor=#6c8ebf;" vertex="1" parent="1">
          <mxGeometry x="460" y="290" width="70" height="60" as="geometry" />
        </mxCell>
        <mxCell id="SkEyFe7wz7d3hwRlkdky-49" style="edgeStyle=orthogonalEdgeStyle;rounded=0;orthogonalLoop=1;jettySize=auto;html=1;exitX=0.5;exitY=1;exitDx=0;exitDy=0;entryX=0.5;entryY=0;entryDx=0;entryDy=0;" edge="1" parent="1" source="SkEyFe7wz7d3hwRlkdky-20" target="SkEyFe7wz7d3hwRlkdky-24">
          <mxGeometry relative="1" as="geometry" />
        </mxCell>
        <mxCell id="SkEyFe7wz7d3hwRlkdky-20" value="ordenador" style="rounded=0;whiteSpace=wrap;html=1;fillColor=#dae8fc;strokeColor=#6c8ebf;" vertex="1" parent="1">
          <mxGeometry x="540" y="290" width="70" height="60" as="geometry" />
        </mxCell>
        <mxCell id="SkEyFe7wz7d3hwRlkdky-30" style="edgeStyle=orthogonalEdgeStyle;rounded=0;orthogonalLoop=1;jettySize=auto;html=1;exitX=0.5;exitY=1;exitDx=0;exitDy=0;entryX=0.75;entryY=0;entryDx=0;entryDy=0;" edge="1" parent="1" source="SkEyFe7wz7d3hwRlkdky-21" target="SkEyFe7wz7d3hwRlkdky-25">
          <mxGeometry relative="1" as="geometry">
            <Array as="points">
              <mxPoint x="692" y="350" />
            </Array>
          </mxGeometry>
        </mxCell>
        <mxCell id="SkEyFe7wz7d3hwRlkdky-21" value="monitor" style="rounded=0;whiteSpace=wrap;html=1;fillColor=#dae8fc;strokeColor=#6c8ebf;" vertex="1" parent="1">
          <mxGeometry x="630" y="290" width="70" height="60" as="geometry" />
        </mxCell>
        <mxCell id="SkEyFe7wz7d3hwRlkdky-31" style="edgeStyle=orthogonalEdgeStyle;rounded=0;orthogonalLoop=1;jettySize=auto;html=1;exitX=0.5;exitY=1;exitDx=0;exitDy=0;" edge="1" parent="1" source="SkEyFe7wz7d3hwRlkdky-22" target="SkEyFe7wz7d3hwRlkdky-26">
          <mxGeometry relative="1" as="geometry">
            <Array as="points">
              <mxPoint x="765" y="430" />
              <mxPoint x="765" y="430" />
            </Array>
          </mxGeometry>
        </mxCell>
        <mxCell id="SkEyFe7wz7d3hwRlkdky-22" value="impresora" style="rounded=0;whiteSpace=wrap;html=1;fillColor=#dae8fc;strokeColor=#6c8ebf;" vertex="1" parent="1">
          <mxGeometry x="725" y="290" width="80" height="60" as="geometry" />
        </mxCell>
        <mxCell id="SkEyFe7wz7d3hwRlkdky-23" value="&lt;div&gt;PortÃ¡til&lt;/div&gt;&lt;div&gt;HP Envy&lt;/div&gt;&lt;div&gt;17&lt;br&gt;&lt;/div&gt;" style="rounded=0;whiteSpace=wrap;html=1;fillColor=#fff2cc;strokeColor=#d6b656;" vertex="1" parent="1">
          <mxGeometry x="459" y="470" width="60" height="60" as="geometry" />
        </mxCell>
        <mxCell id="SkEyFe7wz7d3hwRlkdky-24" value="&lt;div&gt;Sobremesa&lt;/div&gt;&lt;div&gt;Compact&lt;/div&gt;&lt;div&gt;10&lt;br&gt;&lt;/div&gt;" style="rounded=0;whiteSpace=wrap;html=1;fillColor=#fff2cc;strokeColor=#d6b656;" vertex="1" parent="1">
          <mxGeometry x="539" y="470" width="70" height="60" as="geometry" />
        </mxCell>
        <mxCell id="SkEyFe7wz7d3hwRlkdky-25" value="&lt;div&gt;Monitor &lt;br&gt;&lt;/div&gt;&lt;div&gt;Acer&lt;br&gt;&lt;/div&gt;" style="rounded=0;whiteSpace=wrap;html=1;fillColor=#fff2cc;strokeColor=#d6b656;" vertex="1" parent="1">
          <mxGeometry x="639" y="470" width="70" height="60" as="geometry" />
        </mxCell>
        <mxCell id="SkEyFe7wz7d3hwRlkdky-26" value="&lt;div&gt;Impresora&lt;/div&gt;&lt;div&gt;Brother&lt;br&gt;&lt;/div&gt;" style="rounded=0;whiteSpace=wrap;html=1;fillColor=#fff2cc;strokeColor=#d6b656;" vertex="1" parent="1">
          <mxGeometry x="739" y="470" width="70" height="60" as="geometry" />
        </mxCell>
      </root>
    </mxGraphModel>
  </diagram>
</mxfile>
